<?xml version="1.0" standalone="no"?>
<!DOCTYPE svg PUBLIC "-//W3C//DTD SVG 20010904//EN"
 "http://www.w3.org/TR/2001/REC-SVG-20010904/DTD/svg10.dtd">
<svg version="1.0" xmlns="http://www.w3.org/2000/svg"
 width="2482.000000pt" height="2482.000000pt" viewBox="0 0 2482.000000 2482.000000"
 preserveAspectRatio="xMidYMid meet">
<metadata>
Created by potrace 1.14, written by Peter Selinger 2001-2017
</metadata>
<g transform="translate(0.000000,2482.000000) scale(0.100000,-0.100000)"
fill="#000000" stroke="none">
<path d="M14266 17363 c-2 -2 -30 -11 -63 -19 -32 -8 -65 -16 -73 -19 -19 -5
-129 -32 -161 -39 -13 -3 -42 -10 -64 -16 -22 -6 -49 -13 -61 -15 -12 -3 -40
-11 -63 -19 -22 -9 -41 -13 -41 -9 0 3 -6 1 -12 -4 -11 -8 -37 -18 -78 -28 -3
0 -43 -13 -90 -28 -47 -15 -89 -27 -95 -28 -5 -1 -21 -6 -35 -11 -14 -5 -36
-12 -50 -15 -14 -3 -29 -6 -35 -7 -5 -1 -20 -8 -32 -14 -13 -7 -23 -10 -23 -7
0 2 -24 -5 -52 -16 -29 -11 -54 -20 -55 -20 -3 1 -27 -7 -50 -16 -10 -3 -20
-7 -23 -7 -3 -1 -36 -14 -75 -28 -38 -15 -79 -29 -90 -32 -28 -7 -77 -17 -92
-18 -7 -1 -13 -5 -13 -10 0 -5 -4 -7 -8 -4 -5 3 -58 -11 -118 -30 -60 -19
-120 -37 -134 -40 -13 -3 -30 -10 -37 -16 -7 -6 -13 -8 -13 -4 0 3 -17 -1 -37
-10 -55 -23 -144 -55 -173 -61 -14 -3 -29 -6 -35 -7 -5 -2 -23 -6 -40 -10 -53
-13 -357 -117 -400 -137 -11 -5 -38 -15 -60 -23 -22 -8 -74 -30 -116 -50 -42
-20 -84 -36 -92 -36 -9 0 -53 -12 -99 -27 -46 -15 -85 -27 -88 -28 -3 -1 -18
-7 -33 -13 -16 -7 -34 -12 -41 -12 -6 0 -17 -5 -23 -11 -6 -6 -17 -11 -24 -12
-16 -3 -80 -27 -284 -108 -16 -7 -33 -12 -37 -11 -5 1 -8 -2 -8 -7 0 -7 -55
-23 -75 -21 -3 0 -47 -21 -97 -47 -51 -26 -95 -47 -98 -48 -5 0 -119 -49 -160
-68 -13 -7 -67 -41 -120 -76 -74 -49 -256 -148 -290 -156 -19 -5 -56 -26 -125
-71 -44 -28 -102 -63 -130 -76 -166 -82 -225 -114 -270 -143 -56 -37 -96 -60
-205 -118 -41 -22 -77 -43 -80 -47 -3 -3 -22 -14 -42 -23 -21 -10 -38 -21 -38
-25 0 -4 -14 -13 -30 -20 -17 -8 -64 -36 -105 -63 -42 -27 -78 -49 -81 -49 -7
0 -68 -43 -76 -55 -4 -5 -8 -7 -8 -2 0 4 -8 -1 -18 -10 -39 -37 -90 -81 -162
-138 -41 -32 -93 -79 -115 -104 -22 -25 -49 -55 -60 -66 -11 -12 -33 -40 -48
-62 -32 -46 -101 -113 -117 -113 -5 0 -10 -4 -10 -10 0 -5 -6 -10 -14 -10 -8
0 -16 -3 -18 -8 -5 -13 -161 -127 -208 -153 -25 -13 -46 -27 -48 -31 -2 -5 -8
-8 -14 -8 -10 0 -86 -58 -128 -99 -14 -13 -47 -38 -75 -56 -63 -40 -178 -158
-206 -209 -11 -22 -26 -45 -33 -52 -23 -22 -134 -209 -149 -250 -8 -21 -18
-48 -23 -59 -4 -11 -8 -22 -9 -25 -1 -3 -5 -14 -9 -25 -4 -11 -13 -33 -19 -49
-14 -37 -9 -308 7 -371 17 -70 49 -155 69 -185 13 -19 29 -51 37 -70 26 -68
173 -205 260 -242 25 -11 68 -30 95 -43 58 -28 145 -55 174 -55 26 0 58 47 59
85 2 75 75 168 157 198 75 28 260 62 500 92 28 4 61 8 75 11 14 2 50 6 80 10
30 3 62 7 70 9 8 2 40 7 70 10 30 3 66 8 80 10 14 2 50 6 80 10 83 9 120 13
180 21 30 5 105 8 165 8 98 0 122 -4 219 -35 98 -31 114 -39 163 -86 89 -87
115 -177 81 -283 -18 -57 -93 -180 -109 -180 -5 0 -9 -5 -9 -10 0 -9 -35 -65
-50 -80 -3 -3 -18 -22 -33 -43 -16 -20 -47 -57 -70 -81 -55 -58 -209 -224
-222 -239 -5 -7 -35 -43 -66 -82 -47 -59 -166 -176 -259 -255 -14 -11 -135
-130 -270 -263 -135 -133 -258 -251 -275 -262 -69 -47 -193 -161 -224 -207
-36 -54 -53 -108 -40 -129 4 -7 4 -18 0 -24 -5 -5 -11 -23 -14 -40 -6 -24 -36
-159 -52 -225 -2 -8 -4 -15 -5 -15 -1 0 -3 -7 -5 -15 -1 -8 -14 -69 -28 -135
-25 -118 -32 -161 -41 -260 -13 -133 -18 -175 -31 -231 -31 -136 -33 -183 -23
-714 5 -218 14 -296 41 -329 7 -8 11 -16 10 -18 -8 -9 -1 -24 19 -42 18 -17
22 -33 24 -106 2 -72 0 -90 -15 -108 -145 -173 -224 -271 -252 -314 -103 -155
-177 -270 -199 -309 -28 -47 -102 -134 -116 -134 -5 -1 -22 -22 -39 -48 -16
-26 -87 -134 -157 -240 -70 -107 -128 -198 -128 -203 0 -5 -5 -9 -11 -9 -5 0
-8 -4 -5 -9 3 -5 -1 -11 -9 -15 -8 -3 -15 -10 -15 -15 0 -6 -22 -43 -49 -83
-26 -40 -54 -84 -61 -98 -7 -14 -16 -27 -19 -30 -20 -16 -169 -293 -172 -317
-1 -14 -54 -108 -61 -111 -5 -2 -8 -9 -8 -16 0 -6 -9 -30 -20 -51 -17 -32
-140 -395 -156 -455 -2 -8 -8 -32 -13 -53 -13 -52 -7 -154 12 -199 16 -38 65
-72 90 -62 8 3 61 14 118 25 125 23 127 23 135 32 4 4 13 7 21 7 20 0 93 36
233 115 69 38 166 90 215 115 50 25 92 48 93 52 2 5 8 8 13 8 4 0 45 18 90 40
45 22 85 37 90 34 5 -3 9 -1 9 4 0 8 53 36 70 37 3 0 11 4 18 8 7 5 24 11 38
13 15 3 52 18 83 34 31 16 92 43 136 60 44 17 100 44 125 60 45 29 169 79 293
119 37 12 102 37 145 57 42 19 93 42 112 51 19 9 38 17 42 19 4 3 10 -1 14 -7
4 -8 3 -9 -4 -5 -11 6 -17 -12 -13 -36 0 -5 -3 -8 -9 -8 -5 0 -10 -5 -10 -11
0 -5 6 -7 13 -3 8 5 8 2 -2 -9 -11 -14 -11 -20 0 -34 13 -15 12 -15 -11 -3
-22 12 -24 12 -12 -2 14 -18 13 -80 -3 -90 -7 -5 -6 -8 2 -8 6 0 9 -9 5 -22
-3 -14 -2 -19 6 -14 7 4 12 2 12 -3 0 -6 -5 -11 -11 -11 -8 0 -7 -6 2 -17 12
-15 12 -16 -1 -8 -12 6 -12 5 -3 -5 6 -7 9 -19 6 -28 -5 -11 -3 -13 7 -7 10 6
12 4 6 -10 -4 -11 -2 -22 6 -27 11 -6 11 -8 0 -8 -10 0 -10 -3 0 -14 9 -9 17
-11 25 -5 7 7 14 6 19 -2 4 -7 3 -9 -3 -6 -6 4 -16 0 -23 -8 -10 -12 -9 -15 6
-15 16 0 17 -2 4 -10 -13 -8 -12 -10 3 -10 10 0 16 -4 13 -8 -3 -4 18 -28 46
-53 29 -24 61 -55 72 -69 12 -13 39 -43 61 -67 l40 -43 114 -1 c63 -1 127 -5
143 -10 18 -5 26 -4 22 2 -3 5 9 4 28 -4 18 -7 39 -25 46 -40 7 -15 18 -27 23
-27 6 0 7 -5 3 -12 -4 -7 -8 -24 -9 -39 -2 -31 -17 -56 -74 -119 -22 -25 -41
-49 -41 -54 0 -5 -7 -17 -16 -27 -20 -22 -31 -114 -12 -103 9 6 9 3 -1 -9 -9
-11 -10 -17 -2 -17 6 0 11 -5 11 -11 0 -5 -6 -7 -12 -3 -7 4 -4 -2 6 -14 11
-12 15 -22 11 -22 -5 0 -4 -5 3 -12 7 -7 12 -18 12 -26 0 -8 9 -23 21 -33 11
-9 21 -21 21 -26 1 -15 25 -43 31 -36 4 3 7 -1 7 -10 0 -15 11 -21 32 -18 4 0
5 -5 2 -12 -3 -8 8 -20 23 -28 15 -8 42 -28 59 -45 17 -16 37 -28 44 -26 7 3
10 0 6 -7 -5 -7 1 -11 13 -11 12 0 21 -5 21 -11 0 -5 5 -7 10 -4 6 3 10 2 10
-3 0 -5 6 -9 13 -10 6 0 23 -3 37 -7 189 -50 365 -13 522 109 70 55 117 86
168 111 58 29 110 65 147 99 11 12 51 46 86 76 36 30 66 61 66 68 1 6 6 12 11
12 6 0 19 14 29 30 l18 30 27 -50 c15 -27 32 -50 37 -50 6 0 8 -3 6 -7 -2 -5
11 -23 29 -41 19 -18 34 -30 34 -28 0 3 12 -6 26 -19 15 -14 33 -25 41 -25 8
0 11 -4 8 -10 -4 -6 7 -10 24 -10 17 0 31 -4 31 -9 0 -6 9 -8 20 -6 11 2 20 0
20 -5 0 -4 8 -7 18 -6 9 2 20 -2 24 -8 5 -8 8 -7 8 2 0 9 5 10 18 3 22 -12 54
-10 64 4 5 6 8 5 8 -4 0 -11 3 -11 17 0 15 12 16 12 8 -1 -7 -13 -6 -13 7 -2
9 7 29 14 45 16 17 1 27 7 25 16 -3 11 0 11 12 0 14 -10 16 -10 16 6 0 13 3
15 11 7 8 -8 16 -6 30 8 11 11 24 17 29 14 6 -4 10 1 10 10 0 9 5 13 10 10 6
-3 13 1 16 9 3 9 9 14 13 13 3 -2 14 4 24 15 9 10 14 18 10 18 -3 0 7 11 23
25 16 14 26 25 22 25 -4 0 4 11 17 25 21 23 43 65 88 165 20 45 59 144 58 148
-5 14 11 23 82 47 45 16 120 48 167 72 47 24 91 43 98 43 16 0 55 -22 65 -37
16 -25 158 -112 204 -124 54 -14 208 -17 268 -5 22 5 72 24 112 43 56 27 88
52 151 119 54 57 88 84 104 85 119 5 170 13 251 39 33 11 71 20 84 20 14 0 32
4 41 9 9 5 40 11 67 14 63 6 170 38 238 71 129 62 227 163 345 354 l47 76 68
-3 c86 -3 118 8 234 80 52 33 98 59 103 59 16 0 84 43 135 84 108 89 245 184
245 170 0 -3 7 2 16 10 8 9 20 14 25 11 5 -4 9 -2 9 3 0 6 12 15 28 21 26 10
82 41 92 51 3 3 16 11 31 18 14 7 39 26 57 43 17 16 36 29 41 29 6 0 11 4 11
9 0 5 12 16 26 26 25 16 27 16 45 -3 10 -11 27 -23 39 -27 11 -3 20 -11 20
-17 0 -5 7 -8 15 -5 8 4 17 1 21 -5 4 -7 3 -8 -4 -4 -25 15 -10 -3 16 -20 26
-17 27 -17 12 1 -14 17 -14 17 6 7 12 -6 25 -8 30 -4 5 4 3 0 -3 -8 -10 -13
-4 -15 39 -14 32 1 45 -2 37 -7 -10 -6 -8 -9 9 -9 13 0 21 -4 18 -8 -3 -5 1
-9 9 -9 8 0 12 4 9 9 -3 4 2 8 10 8 9 0 16 -4 16 -10 0 -5 5 -10 11 -10 5 0 7
5 3 12 -5 8 -2 9 9 5 12 -4 17 -1 17 10 0 14 2 14 16 -3 8 -10 13 -14 10 -8
-7 15 21 27 30 13 3 -6 10 -6 17 -1 7 5 46 17 87 26 56 13 85 26 115 52 22 19
43 34 46 34 8 0 79 96 79 106 0 9 100 186 116 204 13 15 96 162 122 215 26 53
94 155 104 155 5 0 6 5 3 10 -3 6 -1 10 5 10 6 0 8 4 5 10 -4 6 1 7 11 3 11
-4 15 -2 11 4 -4 6 0 14 9 17 8 3 13 10 10 15 -4 5 -2 11 4 13 11 3 100 212
100 234 0 24 274 554 293 566 6 4 9 8 4 8 -4 0 2 17 13 37 11 21 20 42 20 47
0 4 16 35 36 67 19 32 35 61 34 65 -1 3 5 11 13 17 24 19 70 117 70 148 0 16
4 29 8 29 3 0 6 18 6 40 0 22 -5 40 -10 40 -5 0 -5 6 2 13 8 10 7 17 -1 25 -7
7 -8 12 -3 12 5 0 0 7 -11 16 -10 8 -12 12 -4 8 12 -5 12 -4 3 6 -6 7 -9 19
-6 26 4 10 0 12 -13 7 -16 -5 -17 -4 -8 8 9 11 9 17 -1 26 -7 6 -16 9 -21 5
-4 -4 -5 0 -2 8 3 9 -3 26 -13 39 -11 13 -19 19 -19 14 0 -5 6 -15 13 -23 10
-12 9 -12 -5 -1 -9 7 -18 22 -20 34 -2 15 -9 21 -22 19 -11 -2 -15 1 -11 7 3
6 2 11 -4 11 -5 0 -12 -6 -14 -12 -4 -9 -6 -7 -6 3 -1 23 75 54 234 94 39 10
147 46 240 80 94 35 184 66 200 70 44 10 91 71 99 125 10 76 39 154 128 350
11 25 36 84 54 132 56 147 194 435 255 532 21 34 56 106 78 159 22 53 48 109
58 125 33 49 42 66 82 144 22 42 63 115 90 161 28 46 51 89 51 96 0 6 5 11 10
11 6 0 10 7 10 15 0 8 4 15 8 15 16 0 41 55 32 71 -5 9 -10 32 -12 52 -2 28
-7 38 -28 46 -54 21 -71 22 -119 7 -28 -8 -86 -16 -130 -17 -45 -1 -118 -12
-166 -25 -83 -22 -85 -22 -85 -3 0 11 6 30 14 42 15 23 16 30 41 190 8 53 21
123 30 155 9 31 18 66 20 77 6 26 75 229 110 320 92 245 122 313 199 445 27
47 55 96 63 110 8 14 32 54 55 90 22 36 52 85 66 110 14 25 40 68 58 96 19 28
34 54 34 58 0 4 9 19 19 34 11 15 54 85 98 156 43 71 88 145 101 165 12 20 25
44 28 54 4 9 10 17 15 17 5 0 9 5 9 11 0 6 14 31 30 56 17 24 30 48 30 54 0 5
3 9 8 9 4 0 18 23 31 50 14 28 29 50 33 50 4 0 8 8 8 19 0 10 9 30 20 44 33
42 57 104 52 137 -2 16 -8 30 -12 30 -4 0 -17 9 -30 20 -19 17 -32 19 -89 14
-36 -3 -77 -8 -91 -10 -14 -3 -36 -7 -50 -10 -35 -6 -167 -31 -215 -40 -58
-11 -57 -10 -120 -29 -32 -9 -61 -13 -66 -8 -9 9 -14 149 -7 173 15 49 28 99
33 130 3 19 8 42 10 50 3 8 7 42 10 75 3 33 7 85 10 115 3 30 16 80 29 110 14
30 39 93 57 140 17 47 38 99 45 115 7 17 16 41 20 55 4 14 19 51 35 83 15 31
25 57 23 57 -2 0 5 15 15 33 10 18 22 48 26 65 3 18 11 32 16 32 5 0 9 6 9 13
0 11 60 162 102 257 86 190 131 350 125 444 -2 41 1 67 7 70 7 3 6 5 -1 5 -7
1 -13 9 -13 20 0 40 -19 44 -190 44 -72 -1 -94 -4 -170 -23 -19 -5 -54 -12
-77 -15 -23 -3 -66 -14 -95 -24 -62 -22 -401 -192 -406 -203 -2 -4 -9 -8 -16
-8 -16 0 -143 -65 -203 -103 -24 -15 -44 -27 -47 -27 -2 0 -58 -32 -126 -71
-67 -38 -157 -88 -201 -111 -43 -22 -82 -44 -85 -49 -3 -5 -14 -9 -25 -9 -10
0 -19 -4 -19 -9 0 -5 -8 -12 -19 -16 -17 -5 -140 -72 -201 -110 -14 -8 -81
-52 -150 -97 -69 -46 -129 -85 -134 -87 -8 -3 -19 -12 -68 -53 -39 -33 -215
-148 -226 -148 -7 0 -12 -4 -12 -10 0 -5 -5 -10 -10 -10 -6 0 -45 -21 -88 -46
-42 -25 -86 -50 -96 -56 -11 -6 -40 -22 -65 -36 -25 -13 -79 -44 -118 -68 -40
-24 -77 -44 -83 -44 -5 0 -10 -4 -10 -8 0 -5 -17 -16 -37 -25 -21 -9 -56 -28
-78 -42 -22 -14 -47 -28 -55 -32 -8 -4 -19 -11 -25 -15 -28 -23 -85 -56 -85
-50 0 4 -4 2 -8 -4 -4 -6 -56 -44 -117 -85 -60 -40 -112 -76 -115 -79 -12 -14
-140 -89 -185 -110 -28 -12 -53 -27 -56 -32 -3 -5 -9 -9 -13 -9 -8 2 -17 -5
-176 -121 -69 -51 -126 -96 -128 -100 -2 -4 -8 -8 -13 -8 -5 0 -51 -31 -101
-69 -107 -78 -234 -161 -248 -161 -6 0 -10 -4 -10 -9 0 -5 -8 -12 -17 -15 -24
-9 -77 -38 -83 -45 -3 -3 -30 -19 -60 -35 -171 -91 -312 -189 -354 -248 -16
-22 -47 -51 -70 -66 -22 -15 -42 -30 -44 -34 -2 -5 -8 -8 -13 -8 -12 0 -175
-113 -344 -238 -77 -56 -151 -111 -163 -120 -13 -9 -42 -31 -65 -48 -23 -17
-96 -71 -162 -120 -66 -49 -122 -91 -125 -95 -20 -23 -176 -118 -189 -115 -9
3 -28 8 -43 12 -16 3 -28 8 -28 11 0 9 113 123 118 118 8 -8 75 54 124 115 20
25 54 58 75 74 21 16 56 51 77 77 22 27 43 49 49 49 18 0 46 46 47 78 0 71
-54 127 -134 138 -41 6 -65 20 -33 21 32 0 140 28 212 54 44 17 116 39 160 50
115 30 280 96 307 124 55 57 14 114 -123 173 -46 20 -79 40 -79 49 0 8 4 12 9
8 5 -3 12 -1 15 4 6 8 156 102 234 144 50 28 122 106 122 133 0 7 -7 20 -16
28 -9 9 -17 34 -18 57 -2 33 3 47 33 82 20 23 49 61 65 85 16 23 31 42 35 42
3 0 22 14 41 31 19 17 45 38 58 46 12 9 22 23 22 33 0 10 7 30 15 46 8 16 11
32 5 38 -4 6 -8 14 -7 19 3 10 -60 47 -81 47 -14 1 -12 5 8 21 51 42 76 64
128 111 30 26 79 64 110 84 123 79 161 106 199 142 21 20 52 44 69 52 16 8 41
23 57 33 15 10 27 16 27 12 0 -3 6 -1 13 4 51 42 76 61 81 61 20 0 107 108
142 176 l42 81 -24 30 c-35 45 -91 57 -232 49 -151 -8 -253 -15 -322 -22 -121
-12 -165 -10 -161 6 9 36 0 81 -21 105 -24 27 -76 46 -111 40 -21 -4 -21 -3 3
15 14 11 30 24 35 28 6 5 51 36 100 70 50 34 124 86 165 115 41 29 96 65 122
80 83 48 105 73 128 145 33 103 17 153 -61 182 -48 17 -193 25 -486 25 -139 0
-252 3 -250 6 2 6 113 130 180 200 15 17 27 32 27 36 0 3 8 13 18 22 10 9 40
43 67 76 66 79 62 75 130 130 33 27 63 53 67 59 12 17 9 53 -5 68 -8 7 -17 26
-21 41 -6 27 -12 29 -71 31 -11 0 -23 4 -26 9 -7 10 -65 18 -73 10z m-536
-4072 c0 -5 -22 -23 -50 -40 -27 -17 -59 -40 -71 -52 -11 -11 -23 -18 -25 -16
-6 6 5 16 81 72 68 50 65 48 65 36z m-176 -128 c-25 -23 -165 -127 -184 -137
-22 -12 24 26 114 94 78 59 109 77 70 43z m-961 -677 c-15 -19 -31 -32 -36
-29 -9 6 41 63 55 63 5 0 -3 -15 -19 -34z m2657 -711 c0 -8 -4 -15 -10 -15 -5
0 -10 7 -10 15 0 8 5 15 10 15 6 0 10 -7 10 -15z m-4739 -762 c2 1 -7 -8 -20
-21 -29 -27 -35 -24 -21 13 8 21 13 25 24 16 7 -6 15 -10 17 -8z m3712 -1528
c-3 -9 -8 -14 -10 -11 -3 3 -2 9 2 15 9 16 15 13 8 -4z m-3952 -1225 c-4 -51
-5 -52 -11 -20 -3 19 -2 45 4 58 12 30 13 26 7 -38z"/>
<path d="M15517 7349 c7 -7 15 -10 18 -7 3 3 -2 9 -12 12 -14 6 -15 5 -6 -5z"/>
</g>
</svg>
