<svg xmlns="http://www.w3.org/2000/svg" xmlns:xlink="http://www.w3.org/1999/xlink" viewBox="0 0 680 510"><defs><style>.cls-1{isolation:isolate;}.cls-2{fill:url(#Unbenannter_Verlauf_2);}.cls-3{fill:#4f4f4f;opacity:0.16;}.cls-4{fill:url(#Unbenannter_Verlauf_53);}.cls-5{fill:url(#Unbenannter_Verlauf_53-2);}.cls-6{fill:url(#Unbenannter_Verlauf_53-3);}.cls-7{fill:url(#Unbenannter_Verlauf_53-4);}.cls-8{fill:url(#Unbenannter_Verlauf_170);}.cls-9{fill:url(#Unbenannter_Verlauf_170-2);}.cls-10{fill:url(#Unbenannter_Verlauf_53-5);}.cls-11{fill:url(#Unbenannter_Verlauf_15);}.cls-12{fill:#0c173d;}.cls-13{fill:none;stroke:#103257;stroke-miterlimit:10;}.cls-14{fill:#339bf3;}.cls-15{fill:#015dac;}.cls-16,.cls-17{fill:#79c0fb;}.cls-17{opacity:0.3;}.cls-18{fill:#16477c;}.cls-19{fill:#fabc1f;}.cls-20{fill:#fcdb2c;}.cls-21{fill:url(#Unbenannter_Verlauf_40);}.cls-22{fill:url(#Unbenannter_Verlauf_40-2);}.cls-23{fill:url(#Unbenannter_Verlauf_170-3);}.cls-24{fill:url(#Unbenannter_Verlauf_170-4);}.cls-25{fill:url(#Unbenannter_Verlauf_170-5);}.cls-26{fill:url(#Unbenannter_Verlauf_170-6);}.cls-27{fill:url(#Unbenannter_Verlauf_170-7);}.cls-28,.cls-77,.cls-82,.cls-85{fill:#fff;}.cls-29{fill:url(#Unbenannter_Verlauf_36);}.cls-30{fill:#ffb68e;}.cls-31{fill:url(#Unbenannter_Verlauf_15-2);}.cls-32{fill:url(#Unbenannter_Verlauf_5);}.cls-33{fill:url(#Unbenannter_Verlauf_5-2);}.cls-34{fill:url(#Unbenannter_Verlauf_5-3);}.cls-35{fill:url(#Unbenannter_Verlauf_36-2);}.cls-36{fill:url(#Unbenannter_Verlauf_36-3);}.cls-37{fill:url(#Unbenannter_Verlauf_15-3);}.cls-38{fill:url(#Unbenannter_Verlauf_15-4);}.cls-39{fill:#103257;}.cls-40{fill:url(#Unbenannter_Verlauf_15-5);}.cls-41{fill:url(#Unbenannter_Verlauf_170-8);}.cls-42{fill:url(#Unbenannter_Verlauf_170-9);}.cls-43{fill:url(#Unbenannter_Verlauf_170-10);}.cls-44{fill:url(#Unbenannter_Verlauf_170-11);}.cls-45{fill:url(#Unbenannter_Verlauf_170-12);}.cls-46{fill:url(#Unbenannter_Verlauf_15-6);}.cls-47{fill:url(#Unbenannter_Verlauf_15-7);}.cls-48{fill:url(#Unbenannter_Verlauf_15-8);}.cls-49{fill:url(#Unbenannter_Verlauf_15-9);}.cls-50{fill:url(#Unbenannter_Verlauf_15-10);}.cls-51{fill:url(#Unbenannter_Verlauf_15-11);}.cls-52{fill:url(#Unbenannter_Verlauf_15-12);}.cls-53{fill:url(#Unbenannter_Verlauf_15-13);}.cls-54{fill:url(#Unbenannter_Verlauf_15-14);}.cls-55{fill:url(#Unbenannter_Verlauf_15-15);}.cls-56{fill:url(#Unbenannter_Verlauf_15-16);}.cls-57{fill:url(#Unbenannter_Verlauf_15-17);}.cls-58{fill:url(#Unbenannter_Verlauf_15-18);}.cls-59{fill:url(#Unbenannter_Verlauf_170-13);}.cls-60{fill:url(#Unbenannter_Verlauf_170-14);}.cls-61{fill:url(#Unbenannter_Verlauf_5-4);}.cls-62{fill:url(#Unbenannter_Verlauf_5-5);}.cls-63{fill:url(#Unbenannter_Verlauf_5-6);}.cls-64{fill:url(#Unbenannter_Verlauf_5-7);}.cls-65{fill:url(#Unbenannter_Verlauf_5-8);}.cls-66{fill:url(#Unbenannter_Verlauf_5-9);}.cls-67,.cls-72{fill:#0068d8;}.cls-68{fill:url(#Unbenannter_Verlauf_5-10);}.cls-69{fill:url(#Unbenannter_Verlauf_5-11);}.cls-70{fill:url(#Unbenannter_Verlauf_5-12);}.cls-71{fill:url(#Unbenannter_Verlauf_40-3);}.cls-72{opacity:0.25;}.cls-73{fill:url(#Unbenannter_Verlauf_5-13);}.cls-74{fill:url(#Unbenannter_Verlauf_5-14);}.cls-75{fill:url(#Unbenannter_Verlauf_40-4);}.cls-76{fill:url(#Unbenannter_Verlauf_170-15);}.cls-77,.cls-82,.cls-85{mix-blend-mode:soft-light;}.cls-78{fill:url(#Unbenannter_Verlauf_40-5);}.cls-79{fill:#003b57;}.cls-80{fill:url(#Unbenannter_Verlauf_5-15);}.cls-81{fill:url(#Unbenannter_Verlauf_5-16);}.cls-82{opacity:0.5;}.cls-83{opacity:0.88;}.cls-84{fill:#f2f2f2;}.cls-85{opacity:0.15;}.cls-86{fill:url(#Unbenannter_Verlauf_15-19);}.cls-87{fill:url(#Unbenannter_Verlauf_15-20);}.cls-88{fill:url(#Unbenannter_Verlauf_15-21);}.cls-89{fill:url(#Unbenannter_Verlauf_15-22);}</style><linearGradient id="Unbenannter_Verlauf_2" x1="546.31" y1="142.15" x2="-103.88" y2="631.54" gradientUnits="userSpaceOnUse"><stop offset="0.15" stop-color="#fff"/><stop offset="1" stop-color="#79c0fb"/></linearGradient><linearGradient id="Unbenannter_Verlauf_53" x1="17216.63" y1="-2233.39" x2="16950.64" y2="-2178.44" gradientTransform="translate(80.76 17527.51) rotate(-82.63)" gradientUnits="userSpaceOnUse"><stop offset="0" stop-color="#04808a"/><stop offset="0.97" stop-color="#103257"/></linearGradient><linearGradient id="Unbenannter_Verlauf_53-2" x1="17214.16" y1="-2245.33" x2="16948.17" y2="-2190.37" xlink:href="#Unbenannter_Verlauf_53"/><linearGradient id="Unbenannter_Verlauf_53-3" x1="17219.35" y1="-2220.19" x2="16953.37" y2="-2165.24" xlink:href="#Unbenannter_Verlauf_53"/><linearGradient id="Unbenannter_Verlauf_53-4" x1="7600.74" y1="361.98" x2="7578.18" y2="187.51" gradientTransform="matrix(-1, 0, 0, 1, 7716.01, 0)" xlink:href="#Unbenannter_Verlauf_53"/><linearGradient id="Unbenannter_Verlauf_170" x1="17024.22" y1="-2244.63" x2="17177.75" y2="-2244.63" gradientTransform="translate(80.76 17527.51) rotate(-82.63)" gradientUnits="userSpaceOnUse"><stop offset="0" stop-color="#00808b"/><stop offset="0.97" stop-color="#12b1aa"/></linearGradient><linearGradient id="Unbenannter_Verlauf_170-2" x1="16986.15" y1="-2246.91" x2="17155.13" y2="-2246.91" xlink:href="#Unbenannter_Verlauf_170"/><linearGradient id="Unbenannter_Verlauf_53-5" x1="16985.47" y1="-2167.97" x2="17168.88" y2="-2167.97" xlink:href="#Unbenannter_Verlauf_53"/><linearGradient id="Unbenannter_Verlauf_15" x1="16960.34" y1="-2204.66" x2="17002.03" y2="-2204.66" gradientTransform="translate(80.76 17527.51) rotate(-82.63)" gradientUnits="userSpaceOnUse"><stop offset="0" stop-color="#015dac"/><stop offset="0" stop-color="#16477c"/><stop offset="0.1" stop-color="#134a82"/><stop offset="0.68" stop-color="#0658a1"/><stop offset="1" stop-color="#015dac"/></linearGradient><linearGradient id="Unbenannter_Verlauf_40" x1="6041.59" y1="151.46" x2="6137.36" y2="151.46" gradientTransform="matrix(-1.14, 0, 0, 1, 7247.17, 0)" gradientUnits="userSpaceOnUse"><stop offset="0" stop-color="#0068d8"/><stop offset="0.97" stop-color="#79c0fb"/></linearGradient><linearGradient id="Unbenannter_Verlauf_40-2" x1="350.96" y1="134.25" x2="446.73" y2="134.25" gradientTransform="matrix(1, 0, 0, 1, 0, 0)" xlink:href="#Unbenannter_Verlauf_40"/><linearGradient id="Unbenannter_Verlauf_170-3" x1="6305.58" y1="259.93" x2="6351.25" y2="259.93" gradientTransform="matrix(-1, 0, 0, 1, 6799.13, 0)" xlink:href="#Unbenannter_Verlauf_170"/><linearGradient id="Unbenannter_Verlauf_170-4" x1="6309" y1="259.93" x2="6354.67" y2="259.93" gradientTransform="matrix(-1, 0, 0, 1, 6799.13, 0)" xlink:href="#Unbenannter_Verlauf_170"/><linearGradient id="Unbenannter_Verlauf_170-5" x1="6300.88" y1="274.93" x2="6363.81" y2="274.93" gradientTransform="matrix(-1, 0, 0, 1, 6799.13, 0)" xlink:href="#Unbenannter_Verlauf_170"/><linearGradient id="Unbenannter_Verlauf_170-6" x1="6247.67" y1="197.45" x2="6401.7" y2="197.45" gradientTransform="matrix(-1, 0, 0, 1, 6799.13, 0)" xlink:href="#Unbenannter_Verlauf_170"/><linearGradient id="Unbenannter_Verlauf_170-7" x1="6253.23" y1="197.45" x2="6407.26" y2="197.45" gradientTransform="matrix(-1, 0, 0, 1, 6799.13, 0)" xlink:href="#Unbenannter_Verlauf_170"/><linearGradient id="Unbenannter_Verlauf_36" x1="-1245.08" y1="1478.32" x2="-1235.25" y2="1526.02" gradientTransform="translate(1994.17 -662.96) rotate(17.74)" gradientUnits="userSpaceOnUse"><stop offset="0" stop-color="#0480ef"/><stop offset="0.97" stop-color="#79c0fb"/></linearGradient><linearGradient id="Unbenannter_Verlauf_15-2" x1="6984.09" y1="273.38" x2="7017.9" y2="273.38" gradientTransform="matrix(-1, 0, 0, 1, 7507.29, 0)" xlink:href="#Unbenannter_Verlauf_15"/><linearGradient id="Unbenannter_Verlauf_5" x1="412.83" y1="332.34" x2="475.01" y2="448.94" gradientUnits="userSpaceOnUse"><stop offset="0" stop-color="#0c173d"/><stop offset="0.97" stop-color="#16477c"/></linearGradient><linearGradient id="Unbenannter_Verlauf_5-2" x1="429.78" y1="323.3" x2="491.96" y2="439.91" xlink:href="#Unbenannter_Verlauf_5"/><linearGradient id="Unbenannter_Verlauf_5-3" x1="411.83" y1="332.87" x2="474.02" y2="449.48" xlink:href="#Unbenannter_Verlauf_5"/><linearGradient id="Unbenannter_Verlauf_36-2" x1="436.31" y1="286.74" x2="269.56" y2="250.65" gradientTransform="matrix(1, 0, 0, 1, 0, 0)" xlink:href="#Unbenannter_Verlauf_36"/><linearGradient id="Unbenannter_Verlauf_36-3" x1="2287.71" y1="-161.57" x2="2332.8" y2="-161.57" gradientTransform="translate(-1631.78 1283.08) rotate(-22.54)" xlink:href="#Unbenannter_Verlauf_36"/><linearGradient id="Unbenannter_Verlauf_15-3" x1="395.49" y1="161.71" x2="382.34" y2="170.64" gradientTransform="matrix(1, 0, 0, 1, 0, 0)" xlink:href="#Unbenannter_Verlauf_15"/><linearGradient id="Unbenannter_Verlauf_15-4" x1="318.59" y1="292.8" x2="393.1" y2="292.8" gradientTransform="matrix(1, 0, 0, 1, 0, 0)" xlink:href="#Unbenannter_Verlauf_15"/><linearGradient id="Unbenannter_Verlauf_15-5" x1="361.82" y1="368.17" x2="459.11" y2="368.17" gradientTransform="translate(820.93 736.33) rotate(-180)" xlink:href="#Unbenannter_Verlauf_15"/><linearGradient id="Unbenannter_Verlauf_170-8" x1="6560.48" y1="258.57" x2="6606.14" y2="258.57" gradientTransform="matrix(-1, 0, 0, 1, 6799.13, 0)" xlink:href="#Unbenannter_Verlauf_170"/><linearGradient id="Unbenannter_Verlauf_170-9" x1="6563.9" y1="258.57" x2="6609.56" y2="258.57" gradientTransform="matrix(-1, 0, 0, 1, 6799.13, 0)" xlink:href="#Unbenannter_Verlauf_170"/><linearGradient id="Unbenannter_Verlauf_170-10" x1="6555.77" y1="273.58" x2="6618.71" y2="273.58" gradientTransform="matrix(-1, 0, 0, 1, 6799.13, 0)" xlink:href="#Unbenannter_Verlauf_170"/><linearGradient id="Unbenannter_Verlauf_170-11" x1="6502.56" y1="196.09" x2="6656.6" y2="196.09" gradientTransform="matrix(-1, 0, 0, 1, 6799.13, 0)" xlink:href="#Unbenannter_Verlauf_170"/><linearGradient id="Unbenannter_Verlauf_170-12" x1="6508.13" y1="196.09" x2="6662.16" y2="196.09" gradientTransform="matrix(-1, 0, 0, 1, 6799.13, 0)" xlink:href="#Unbenannter_Verlauf_170"/><linearGradient id="Unbenannter_Verlauf_15-6" x1="196.14" y1="169.67" x2="240.42" y2="214.72" gradientTransform="matrix(1, 0, 0, 1, 0, 0)" xlink:href="#Unbenannter_Verlauf_15"/><linearGradient id="Unbenannter_Verlauf_15-7" x1="198.6" y1="167.26" x2="242.87" y2="212.31" gradientTransform="matrix(1, 0, 0, 1, 0, 0)" xlink:href="#Unbenannter_Verlauf_15"/><linearGradient id="Unbenannter_Verlauf_15-8" x1="214.29" y1="151.83" x2="258.57" y2="196.89" gradientTransform="matrix(1, 0, 0, 1, 0, 0)" xlink:href="#Unbenannter_Verlauf_15"/><linearGradient id="Unbenannter_Verlauf_15-9" x1="212.33" y1="153.76" x2="256.61" y2="198.82" gradientTransform="matrix(1, 0, 0, 1, 0, 0)" xlink:href="#Unbenannter_Verlauf_15"/><linearGradient id="Unbenannter_Verlauf_15-10" x1="166.68" y1="190.73" x2="209.06" y2="190.73" gradientTransform="matrix(1, 0, 0, 1, 0, 0)" xlink:href="#Unbenannter_Verlauf_15"/><linearGradient id="Unbenannter_Verlauf_15-11" x1="488.22" y1="160.86" x2="500.77" y2="175.2" gradientTransform="matrix(1, 0, 0, 1, 0, 0)" xlink:href="#Unbenannter_Verlauf_15"/><linearGradient id="Unbenannter_Verlauf_15-12" x1="490.19" y1="159.13" x2="502.74" y2="173.47" gradientTransform="matrix(1, 0, 0, 1, 0, 0)" xlink:href="#Unbenannter_Verlauf_15"/><linearGradient id="Unbenannter_Verlauf_15-13" x1="500.6" y1="150.03" x2="513.15" y2="164.37" gradientTransform="matrix(1, 0, 0, 1, 0, 0)" xlink:href="#Unbenannter_Verlauf_15"/><linearGradient id="Unbenannter_Verlauf_15-14" x1="498.92" y1="151.5" x2="511.47" y2="165.84" gradientTransform="matrix(1, 0, 0, 1, 0, 0)" xlink:href="#Unbenannter_Verlauf_15"/><linearGradient id="Unbenannter_Verlauf_15-15" x1="483.79" y1="191.84" x2="493.78" y2="206.69" gradientTransform="matrix(1, 0, 0, 1, 0, 0)" xlink:href="#Unbenannter_Verlauf_15"/><linearGradient id="Unbenannter_Verlauf_15-16" x1="486.76" y1="189.85" x2="496.74" y2="204.7" gradientTransform="matrix(1, 0, 0, 1, 0, 0)" xlink:href="#Unbenannter_Verlauf_15"/><linearGradient id="Unbenannter_Verlauf_15-17" x1="497.9" y1="182.35" x2="507.89" y2="197.21" gradientTransform="matrix(1, 0, 0, 1, 0, 0)" xlink:href="#Unbenannter_Verlauf_15"/><linearGradient id="Unbenannter_Verlauf_15-18" x1="6604.4" y1="11904.51" x2="6614.39" y2="11919.36" gradientTransform="translate(7113.04 12108.88) rotate(180)" xlink:href="#Unbenannter_Verlauf_15"/><linearGradient id="Unbenannter_Verlauf_170-13" x1="-393.78" y1="180.14" x2="-412.99" y2="203.77" gradientTransform="matrix(1, 0, -0.16, 1, 956.14, 0)" xlink:href="#Unbenannter_Verlauf_170"/><linearGradient id="Unbenannter_Verlauf_170-14" x1="-391.51" y1="181.99" x2="-410.71" y2="205.61" gradientTransform="matrix(1, 0, -0.16, 1, 956.14, 0)" xlink:href="#Unbenannter_Verlauf_170"/><linearGradient id="Unbenannter_Verlauf_5-4" x1="369.73" y1="11113.47" x2="383.39" y2="11113.47" gradientTransform="matrix(1, 0, 0, -1, 0, 11230.98)" xlink:href="#Unbenannter_Verlauf_5"/><linearGradient id="Unbenannter_Verlauf_5-5" x1="374.38" y1="11098.45" x2="387.37" y2="11098.45" gradientTransform="matrix(1, 0, 0, -1, 0, 11230.98)" xlink:href="#Unbenannter_Verlauf_5"/><linearGradient id="Unbenannter_Verlauf_5-6" x1="375.6" y1="11113.34" x2="384.26" y2="11113.34" gradientTransform="matrix(1, 0, 0, -1, 0, 11230.98)" xlink:href="#Unbenannter_Verlauf_5"/><linearGradient id="Unbenannter_Verlauf_5-7" x1="300.63" y1="11113.49" x2="314.37" y2="11113.49" gradientTransform="matrix(1, 0, 0, -1, 0, 11230.98)" xlink:href="#Unbenannter_Verlauf_5"/><linearGradient id="Unbenannter_Verlauf_5-8" x1="296.62" y1="11098.49" x2="309.61" y2="11098.49" gradientTransform="matrix(1, 0, 0, -1, 0, 11230.98)" xlink:href="#Unbenannter_Verlauf_5"/><linearGradient id="Unbenannter_Verlauf_5-9" x1="299.84" y1="11112.72" x2="308.27" y2="11112.72" gradientTransform="matrix(1, 0, 0, -1, 0, 11230.98)" xlink:href="#Unbenannter_Verlauf_5"/><linearGradient id="Unbenannter_Verlauf_5-10" x1="310.09" y1="112.84" x2="325.78" y2="112.84" xlink:href="#Unbenannter_Verlauf_5"/><linearGradient id="Unbenannter_Verlauf_5-11" x1="358.31" y1="112.84" x2="374.01" y2="112.84" xlink:href="#Unbenannter_Verlauf_5"/><linearGradient id="Unbenannter_Verlauf_5-12" x1="339.63" y1="122.26" x2="361.54" y2="143.08" xlink:href="#Unbenannter_Verlauf_5"/><linearGradient id="Unbenannter_Verlauf_40-3" x1="319.24" y1="168.62" x2="354.89" y2="87.8" gradientTransform="matrix(1, 0, 0, 1, 0, 0)" xlink:href="#Unbenannter_Verlauf_40"/><linearGradient id="Unbenannter_Verlauf_5-13" x1="313.61" y1="78.23" x2="319.05" y2="78.23" xlink:href="#Unbenannter_Verlauf_5"/><linearGradient id="Unbenannter_Verlauf_5-14" x1="365.82" y1="79.15" x2="371.26" y2="79.15" xlink:href="#Unbenannter_Verlauf_5"/><linearGradient id="Unbenannter_Verlauf_40-4" x1="305.46" y1="162.54" x2="341.1" y2="81.72" gradientTransform="matrix(1, 0, 0, 1, 0, 0)" xlink:href="#Unbenannter_Verlauf_40"/><linearGradient id="Unbenannter_Verlauf_170-15" x1="302.69" y1="35.58" x2="390.97" y2="131.32" gradientTransform="translate(415.06 -265.08) rotate(88.99)" xlink:href="#Unbenannter_Verlauf_170"/><linearGradient id="Unbenannter_Verlauf_40-5" x1="330.35" y1="173.52" x2="366" y2="92.7" gradientTransform="matrix(1, 0, 0, 1, 0, 0)" xlink:href="#Unbenannter_Verlauf_40"/><linearGradient id="Unbenannter_Verlauf_5-15" x1="335.42" y1="111.6" x2="348.68" y2="111.6" xlink:href="#Unbenannter_Verlauf_5"/><linearGradient id="Unbenannter_Verlauf_5-16" x1="337.15" y1="111.6" x2="346.95" y2="111.6" xlink:href="#Unbenannter_Verlauf_5"/><linearGradient id="Unbenannter_Verlauf_15-19" x1="480.12" y1="225.74" x2="490.1" y2="240.59" gradientTransform="matrix(1, 0, 0, 1, 0, 0)" xlink:href="#Unbenannter_Verlauf_15"/><linearGradient id="Unbenannter_Verlauf_15-20" x1="483.08" y1="223.74" x2="493.07" y2="238.6" gradientTransform="matrix(1, 0, 0, 1, 0, 0)" xlink:href="#Unbenannter_Verlauf_15"/><linearGradient id="Unbenannter_Verlauf_15-21" x1="494.23" y1="216.25" x2="504.22" y2="231.1" gradientTransform="matrix(1, 0, 0, 1, 0, 0)" xlink:href="#Unbenannter_Verlauf_15"/><linearGradient id="Unbenannter_Verlauf_15-22" x1="6608.08" y1="11870.61" x2="6618.07" y2="11885.46" gradientTransform="translate(7113.04 12108.88) rotate(180)" xlink:href="#Unbenannter_Verlauf_15"/></defs><g class="cls-1"><g id="Ebene_1" data-name="Ebene 1"><path class="cls-2" d="M680,406.94c-.8-33.55-21.5-62.2-44.91-81.54S584.73,293,561.79,272.94c-6.37-5.58-12.61-12-15.69-20.61-3-8.3-2.66-17.63-2.48-26.64.68-33.09-2.89-70.56-25.15-90.94-17.44-16-41.4-16.7-63.53-16.72l-82.07-.09c-10,0-20.44-.14-29.36-5.46-10-6-16.56-17.51-22.19-28.87C307.41,55.5,294.74,23.47,270,8.87c-19.54-11.52-42.69-9.62-64.4-6.43-12.25,1.79-24.89,4.09-35.3,11.87C147.92,31,119.15,57.73,116.83,88.68c-1.51,20.12-3.59,42-15.79,56.31-15.35,17.92-42.11,17.9-55.76,37.62-6.37,9.19,10.37,27.31,9,38h0c-5.62,4.79-18.11,61.62-7.72,90,8.57,23.4-29.77,34.84-41.24,56.46-9,16.94-5.71,39.92,4,56.33s24.61,27.43,39.66,36.77c101,62.7,227.18,66.46,330.79,9.86,24.95-13.63,51.61-31,78.33-23.31,7.27,2.09,14.05,6,20.77,9.82,24.87,14.23,50.07,28.45,77.08,35.55s56.37,6.52,81.13-8S680.74,439.36,680,406.94Z"/><ellipse class="cls-3" cx="72.43" cy="421.04" rx="55.26" ry="5.07"/><path class="cls-4" d="M74,344.47c2.94-8.52,19.13-2,25.83-19.74,1.37-3.65-12.67-10-12.37-14.38.14-2,14.87-1.82,15-3.94.94-24.86-11.06-42-6.22-56.6,1.69-5.12-9.14-5.39-7.87-9.39.43-1.37,11.27,1.47,12.24.37,5.68-6.38,17.89-18.45,20.06-25.73,1.58-5.33.66-13.88-.46-22-.25-1.76-11.32-1.42-11.56-3.1-.8-5.56,11.15-1.6,11.52-4.43,1-7.82,12.43-36.79-.39-41.8C110.17,140,85.17,177.06,82.08,187c-.36,1.13,8.92,11.21,7.71,12.09s-13.13-8-14.36-7.2C66,198.4,52.55,207.11,49.58,215.92c-3.8,11.25,4.07,32.64,2.81,39.73-2,11.06-18,31.35-21,52-.19,1.27,15.27-1.67,15.19-.39-.14,2.22-15.72,8.65-15.49,10.86.16,1.6,28.47-11.51,28.86-9.93.52,2.11-26.79,18.9-25.82,20.95,7.38,15.67,21.06,10,27.48,9.78S74,344.47,74,344.47Z"/><path class="cls-5" d="M75.69,318.11c-.86-.22-1.72-.4-2.59-.57-1.37,28.86-.52,55.07,1.45,71.82a1.65,1.65,0,0,0,3.27-.39C75.65,370.56,74.7,345.24,75.69,318.11Z"/><path class="cls-6" d="M111.24,173.39c-.55-.47-.87.17-2.43,2C86.14,203.66,76.28,261.2,73.39,312c.85.15,1.69.33,2.54.52,2.32-50.35,11.42-105.66,31.92-134.12,1.54-2,2.3-2.9,3.43-4.23A.55.55,0,0,0,111.24,173.39Z"/><path class="cls-7" d="M57.31,327.83c.61-.25,1.32-.52,2.13-.8,3.44-1.18,8.5-2.58,13.42-4l2.7-.75c6.73-1.9,12.56-3.66,12.65-4.61.16-1.48-24.34.51-30.65,0-1-.08-1.53-.22-1.47-.44s.51-.62,1.19-.89c3.84-1.55,15.7-2.41,17.75-4a.78.78,0,0,0,.27-.32c.12-.28-.63-.62-1.85-1-4.17-1.32-13.83-3.08-13.34-4,3.62-6.77,8.78-12.93,14.23-18.51l1-1h0c.85-.86,1.7-1.71,2.56-2.54,7-6.77,14-12.63,18.36-17.66a27.9,27.9,0,0,0,3.24-4.36c3-5.14,3.28-16.88,5.51-27a46,46,0,0,1,2.41-7.85c.12-.28,1.43.33,3.42,1.42,6.8,3.74,21.42,13.18,21.92,12.39.39-.6-12.53-10.86-18.71-16.21-2-1.76-3.35-3-3.2-3.15a28.35,28.35,0,0,1,9.29-6.1c10.83-4.88,26-7.55,33.22-11,1.18-.57,8,10.75,9.19,10s-3.46-13.35-2.38-14.11c2-1.43,2.89-4.55,7.84-6.75,0,0,19.5-2.2,28.29,1a6,6,0,0,1,2.59,1.52,5.69,5.69,0,0,1,1,2.69,28.07,28.07,0,0,1-5.52,22.14,17.06,17.06,0,0,1-2.24,2.41,19.08,19.08,0,0,1-4.37,2.7c-4.59,2.17-9.26,7.62-14.32,8-4.33,1-9.47-.26-9.67-.07-.43.42.7,2.38,2.37,4.89l-.09,18.66c-8.3,4.43-17.41,8.84-23.53,17.5-.95,1.35-13.09-3.26-13.88-1.69-.65,1.28,10,8.67,9.52,10.07-5.79,15.7-4.34,38.79-10.3,54.19-.9,2.31-18.8-3.55-20.09-1.64-.81,1.22,15.13,10.35,14.13,11.36-12.82,13.08-24.53,4.71-31,8.87a7.18,7.18,0,0,0-1.64,1.5s-.34-.68-1-1.67a26.49,26.49,0,0,0-3.27-4.17,15.34,15.34,0,0,0-6.13-4.06,34.05,34.05,0,0,0-3.57-.84c-.92-.18-1.91-.37-2.93-.59a26.22,26.22,0,0,1-10.17-4.07,16.43,16.43,0,0,1-2.84-2.65h0a12.56,12.56,0,0,1-1-1.28,21.19,21.19,0,0,1-3.28-10C55.14,328.89,55.94,328.4,57.31,327.83Z"/><path class="cls-8" d="M63.08,359.33c-3.29-6.75-16,.31-23.37-13.75-1.51-2.88,9.49-9.59,8.8-13.15-.32-1.67-12.5,0-12.78-1.76-3.27-20.5,5-35.87-.52-47.51-1.92-4.07,7-5.38,5.57-8.56-.5-1.09-9.19,2.34-10.1,1.54-5.35-4.72-16.67-13.49-19.2-19.3-1.84-4.26-1.94-11.44-1.82-18.24,0-1.48,9.23-2.31,9.27-3.73.1-4.68-9.4-.2-10-2.51C7.3,226-5,203.14,5.07,197.7c7.56-4.06,32,24.11,35.53,32,.41.91-6.26,10.18-5.17,10.79s10.06-8,11.16-7.4c8.5,4.48,20.49,10.35,23.83,17.35,4.28,8.93-.09,27.44,1.66,33.18,2.74,9,18.06,24.16,22.66,41,.28,1-12.82.15-12.62,1.19.34,1.83,13.89,5.59,13.92,7.44,0,1.35-24.74-6.67-24.9-5.32-.22,1.79,24.08,13,23.49,14.76-4.55,13.72-16.44,10.39-21.79,10.86S63.08,359.33,63.08,359.33Z"/><path class="cls-9" d="M15.76,221.32a.5.5,0,1,0-.65.75c1.07,1,1.78,1.62,3.26,3.15,31.2,33.89,45.77,125.84,45.91,171.36a1.5,1.5,0,0,0,3,0C67.14,356.92,51.77,253.76,15.76,221.32Z"/><path class="cls-10" d="M159.34,226.1a.57.57,0,0,1,.73.87C116.9,263.45,89.63,343.11,83,399.51a1.45,1.45,0,0,1-2.88-.34C86.17,347.7,113.76,263.89,159.34,226.1Z"/><path class="cls-11" d="M47.64,387.32l1.63,3.11s.95,32.65,9.16,32.7l29.92.15c8.11,0,9.49-32.19,9.49-32.19l1.67-3.5a1.33,1.33,0,0,0-1.31-1.33L49,386A1.32,1.32,0,0,0,47.64,387.32Z"/><ellipse class="cls-3" cx="414.91" cy="478.89" rx="84.27" ry="6.39"/><ellipse class="cls-3" cx="361.61" cy="449.3" rx="242.46" ry="3.17"/><path class="cls-12" d="M629,450.44H577.93c-1.76,0-3.15-1.91-3.15-4.35V293.45c0-1.35-.62-2.07-.87-2.07H177.81c-.25,0-.87.72-.87,2.07V446.09c0,2.44-1.39,4.35-3.15,4.35H122.73c-1.77,0-3.15-1.91-3.15-4.35V293.45c0-2.44,1.38-4.35,3.15-4.35H629c1.77,0,3.15,1.91,3.15,4.35V446.09C632.14,448.53,630.76,450.44,629,450.44ZM576.7,291.38a5.91,5.91,0,0,1,.36,2.07V446.09c0,1.35.62,2.07.87,2.07H629c.25,0,.87-.72.87-2.07V293.45c0-1.35-.62-2.07-.87-2.07Zm-454,0c-.25,0-.87.72-.87,2.07V446.09c0,1.35.62,2.07.87,2.07h51.06c.25,0,.87-.72.87-2.07V293.45a5.91,5.91,0,0,1,.36-2.07Z"/><path class="cls-13" d="M629,290.24c1.11,0,2,1.44,2,3.21V446.09c0,1.78-.9,3.21-2,3.21H577.93c-1.11,0-2-1.43-2-3.21V293.45c0-1.77-.9-3.21-2-3.21H122.73c-1.11,0-2,1.44-2,3.21V446.09c0,1.78.9,3.21,2,3.21"/><path class="cls-14" d="M115.91,280.11H579.19a0,0,0,0,1,0,0v8a0,0,0,0,1,0,0H116.75a.84.84,0,0,1-.84-.84v-7.13A0,0,0,0,1,115.91,280.11Z"/><path class="cls-15" d="M579.19,278.14h56.63a0,0,0,0,1,0,0v9.09a.84.84,0,0,1-.84.84H579.19a0,0,0,0,1,0,0v-9.93A0,0,0,0,1,579.19,278.14Z"/><path class="cls-16" d="M586.57,275.83H113.1c-.52,0-.94.67-.94,1.49v4.44c0,.82.42,1.49.94,1.49H586.57Z"/><path class="cls-14" d="M638.47,275.83H577.06c-.52,0-.94.67-.94,1.49v4.44c0,.82.42,1.49.94,1.49h61.41c.6,0,1.09-.77,1.09-1.73v-4C639.56,276.6,639.07,275.83,638.47,275.83Z"/><path class="cls-17" d="M553.61,221.11c3.7,5.61,14.2,13.2,14.2,14.85v.48c0,1.65-10.5,9.24-14.2,14.86-3.82,5.81-2.64,14.65-.85,17.12h32.41c1.78-2.47,3-11.31-.86-17.12-3.7-5.62-14.19-13.21-14.19-14.86V236c0-1.65,10.49-9.24,14.19-14.85,3.83-5.81,2.64-14.65.86-17.13H552.76C551,206.46,549.79,215.3,553.61,221.11Z"/><path class="cls-18" d="M584.36,206.69H552.9c-.63,1.16-.92,1.66-1,4.62-.05,3.61,16.68,20.71,16.68,21.76l.16,30.38c0,1.05-5.39,3.36-5.39,3.94,0,.29,11.41.22,11.15,0-.69-.58-5.16-2.89-5.16-3.94l.11-30.38c0-1,16.54-18.15,16.49-21.76C586,208.35,585,207.85,584.36,206.69Z"/><path class="cls-19" d="M550,269.57h38a3.17,3.17,0,0,1,3.17,3.17h0a3.17,3.17,0,0,1-3.17,3.17H550a3.16,3.16,0,0,1-3.16-3.17h0A3.16,3.16,0,0,1,550,269.57Z"/><path class="cls-20" d="M569,269.57h18.91s0-2.05-1.55-2.05H551.6c-1.55,0-1.55,2.05-1.55,2.05Z"/><rect class="cls-19" x="546.82" y="196.5" width="44.29" height="6.34" rx="2.58"/><path class="cls-20" d="M569,202.84H550.05s0,2,1.55,2h34.72c1.55,0,1.55-2,1.55-2Z"/><path class="cls-21" d="M227.47,224.32c15.89-1.32,33.67-5.72,43.56-21.13,7.43-11.58,8.86-26.46,9.1-40.33.4-23.49-6.08-56.51,9.59-75.7C300.5,74,318.56,73.43,333.28,74.61c2.5.2,2.52,4.6,0,4.4-13.85-1.1-31.42-1-41.31,11.91-7.53,9.88-8.26,24.17-8.37,36.57-.24,26,5.07,58-10.59,80-10.89,15.34-29,19.86-45.54,21.24-2.52.21-2.5-4.2,0-4.4Z"/><path class="cls-22" d="M445.09,190.87c-13.9-1-29.43-4.44-38.08-16.42-6.5-9-7.74-20.56-7.95-31.34-.35-18.26,5.31-43.93-8.39-58.84C381.25,74,365.46,73.6,352.6,74.52c-2.18.15-2.2,3.57,0,3.42,12.11-.86,27.47-.81,36.1,9.26,6.59,7.67,7.23,18.78,7.33,28.42.2,20.22-4.44,45,9.25,62.17,9.52,11.92,25.32,15.44,39.81,16.51,2.19.16,2.18-3.27,0-3.43Z"/><polygon class="cls-23" points="493.55 277.18 463.11 277.18 447.89 242.67 478.33 242.67 493.55 277.18"/><polygon class="cls-24" points="490.13 277.18 459.69 277.18 444.47 242.67 474.91 242.67 490.13 277.18"/><path class="cls-25" d="M496,272.68H437.58a2.25,2.25,0,1,0,0,4.5H496a2.25,2.25,0,0,0,0-4.5Z"/><path class="cls-26" d="M406.29,254.39a8.66,8.66,0,0,1-8.75-10.2l13.21-93.48a12.17,12.17,0,0,1,11.65-10.2H542.61a8.65,8.65,0,0,1,8.75,10.2l-13.21,93.48a12.17,12.17,0,0,1-11.65,10.2Z"/><path class="cls-27" d="M400.73,254.39a8.67,8.67,0,0,1-8.76-10.2l13.22-93.48a12.15,12.15,0,0,1,11.64-10.2H537a8.65,8.65,0,0,1,8.76,10.2l-13.21,93.48a12.17,12.17,0,0,1-11.65,10.2Z"/><path class="cls-28" d="M401.8,246.88a5,5,0,0,1-5.08-5.91l12.31-87a7,7,0,0,1,6.74-5.91H536a5,5,0,0,1,5.07,5.91l-12.3,87a7,7,0,0,1-6.75,5.91Z"/><path class="cls-29" d="M377.33,231.56s-11.65,29.09-7,34.52c2.93,3.4,15.05,15.58,14.17,16.85s-12.22,9.94-12.22,9.94-22-27.31-21.08-33.39,11.9-41.33,23.54-45.24c3.14-1.06.64,2.73,3.4,6.58C382.05,226.22,377.33,231.56,377.33,231.56Z"/><path class="cls-30" d="M459.81,472H446.1a19.29,19.29,0,0,1-2.67-3.46c-2.15-3.46-6.31-2.68-6.31-2.68-1.2,1.05-1.47,5.61-1.52,7.19a2.35,2.35,0,0,0,0,.26H434c-.55-1.44-2.52-8.05-1.92-10.53.07-.28.15-.6.25-.92s.29-1,.46-1.54c.12-.35.22-.72.33-1.12.6-1.88,1.25-3.93,1.58-5.2.49-1.9,1-3.58,1.44-5.19a23.37,23.37,0,0,0,4.4.42s2.61-.51,5.26-1.05a26,26,0,0,0-.84,5.61c1,4.46,7.76,13.07,10.28,15.1l.07,0s0,0,.07,0a.71.71,0,0,1,.2.06h0a9.09,9.09,0,0,1,3,1.68A7.25,7.25,0,0,1,459.81,472Z"/><path class="cls-12" d="M446.1,473.32c-1.38,0-4.05-2.88-5.93-4.34s-2.76-1.3-2.76-1.3c-1.28,1.13-1.79,4.43-1.82,5.64H434c-.56-1.44-2.52-8.05-1.93-10.52a45.16,45.16,0,0,0,2-8.5c5.05-2.88,9.38,6.85,15.88,12.32,3.27,2.75,5.3,2.28,5.3,2.28l.06,0a18.07,18.07,0,0,1,4,1.26c2.7,1.62,2.75,2.63,3.11,3.14Z"/><path class="cls-30" d="M490,472H476.27a18.88,18.88,0,0,1-2.66-3.46c-2.16-3.46-6.33-2.68-6.33-2.68-1.2,1.05-1.46,5.61-1.51,7.19,0,.09,0,.18,0,.26h-1.61c-.56-1.44-2.53-8.05-1.93-10.53.06-.24.14-.5.22-.78s.16-.55.25-.85c.15-.51.32-1.08.5-1.66,0-.1.06-.19.08-.29.6-1.88,1.25-3.93,1.57-5.2a33,33,0,0,0,.79-8.75c1.77,1.13,6.19,2,9.18,1.67a66.73,66.73,0,0,0,.3,6.87c1,4.46,7.76,13.07,10.27,15.1l.08,0a1,1,0,0,0,.31.09,9.19,9.19,0,0,1,3,1.68A7.63,7.63,0,0,1,490,472Z"/><path class="cls-12" d="M476.27,473.32c-1.38,0-4-2.88-5.92-4.34s-2.76-1.3-2.76-1.3c-1.29,1.13-1.79,4.43-1.83,5.64h-1.61c-.56-1.44-2.52-8.05-1.93-10.52a46,46,0,0,0,2-8.5c5.05-2.88,9.38,6.85,15.88,12.32,3.27,2.75,5.3,2.28,5.3,2.28l.06,0a18.06,18.06,0,0,1,4,1.26c2.71,1.62,2.75,2.63,3.12,3.14Z"/><path class="cls-30" d="M394.65,162.55s14.18-3.92,19.59,7.09,3,31.87-4.19,33.84-17.42-.3-20.39-7.15-5.33-16.59-4.62-22.89S390.88,164.05,394.65,162.55Z"/><path class="cls-30" d="M406.35,201.28s-.16,8.37.76,10.16-19.74,1.33-19.74,1.33,3.25-10.05,1.41-18.61S406.35,201.28,406.35,201.28Z"/><path class="cls-31" d="M523.2,279.16v-1.6s-2.25-10-18.19-10-15.62,11.57-15.62,11.57Z"/><path class="cls-30" d="M463,269.5s17.21,2.75,23.52-.8c1.29-.72,8.08-6.9,9.95-6.3s14.08,2.76,13.88,4.53-1.3,1.74-2.17,1.54-9.64-1-10.36-.56c0,0,8.78,2,9.08,4.27s-1.41,3-2.11,3.94-1.39,3.16-3.54,3.58-13.15-1.95-15.35-1.86-19.65,2.83-20,2.51S463,269.5,463,269.5Z"/><path class="cls-32" d="M404.34,357.93l10.77-26.46c23.87-4.78,33.67,5.6,40.12,5.71,10.35.18,11.29,17.78,9,28.65-1.17,5.51-16.08,84.6-14.11,85.81.39.24-10.81,2.4-10.81,2.4s-7.38,0-7.21-2.4c.84-12.18,2.4-16.82,8.84-49.75,3.41-17.42,2-18.75,7.33-40C448.27,361.87,420.57,364,404.34,357.93Z"/><path class="cls-33" d="M414.9,357.93l10.77-26.46c23.87-4.78,33.67,5.6,40.12,5.71,10.35.18,11.29,17.78,9,28.65-1.16,5.51,1,79.74,1.77,83.41,1,4.45-12.46,2.21-12.92,0-2.7-13.18-3-36.45-6.1-47.31-2.61-9.14-1.41-29.57,1.3-40C458.84,361.87,431.14,364,414.9,357.93Z"/><path class="cls-34" d="M383.66,306.08s-20.16,25.61-15.89,44,84.94,13.72,84.94,13.72,12.24-10.76,15-26.31c0,0-27.86-11-45.45-16.06,0,0,1.08-6.44-1.47-17S383.66,306.08,383.66,306.08Z"/><path class="cls-12" d="M411.39,177.58c16.05-12.44-25.83-30.43-33-4.6-2.33,8.36-1.58,22.76,5.92,25.67,4.16,1.62,6.22,6.1,6.22,6.1s21.94-2.78,20.88-27.17"/><path class="cls-35" d="M416.5,214.18c-59.07-13.77-57.8,15.22-41.84,64.93,1.27,3.95-7.46,46.73-7.76,58.91,12.79,8.67,49.22,9.78,59.15-13.65,2-4.53-12.74-35.71-5.79-46.08a40.31,40.31,0,0,0,2.3-4.11c1.31-2.55,4.37-7.61,11.36-17.71C437.94,250.65,432.82,225.8,416.5,214.18Z"/><path class="cls-36" d="M430.55,228.89s10.54,31.56,18.05,32.74c4.7.74,22.88,2.28,23,3.92S468.56,282,468.56,282s-36.58-7-40-12.58-27-41.65-20.25-52.81c1.82-3,8.85-2.79,13.73-1.57C428.89,216.74,430.55,228.89,430.55,228.89Z"/><path class="cls-12" d="M392.82,165.14s3.53-24.46-23.54-18.18c0,0-15.39,2.1-13.61,26.2a20.68,20.68,0,0,0,1.83,6.94c1.79,4,4.14,11.81-1.34,18.25,0,0,13.64,1.18,18.09-20.4C374.25,178,375.26,165.24,392.82,165.14Z"/><path class="cls-37" d="M392.89,161.68a10.4,10.4,0,0,1-7.41,4.41s-1.34,1.22.72,1.66c0,0,9.35-1.3,8.8-4.68C395,163.07,395,161.57,392.89,161.68Z"/><path class="cls-30" d="M410.91,183.11s-2.11-2.73-4.13-.76,1.27,7.06,3.42,6.66S410.91,183.11,410.91,183.11Z"/><path class="cls-12" d="M452.88,478.65H347.72v-2.28h46.15a6.88,6.88,0,0,0,6.7-7.05v-79a6.88,6.88,0,0,0-6.7-7.05H358.16a9,9,0,0,1-8.6-6.65L316,260.29a9.54,9.54,0,0,1,1.53-8.43,8.83,8.83,0,0,1,7.08-3.58h34.33a20.15,20.15,0,0,1,19.3,15L410.76,376a6.71,6.71,0,0,0,6.41,5h35.71a9.17,9.17,0,0,1,9,9.33v79A9.17,9.17,0,0,1,452.88,478.65Zm-53.13-2.28h53.13a6.89,6.89,0,0,0,6.7-7.05v-79a6.89,6.89,0,0,0-6.7-7.05H417.17a9,9,0,0,1-8.61-6.65L376,263.87a17.88,17.88,0,0,0-17.1-13.31H324.61a6.55,6.55,0,0,0-5.25,2.67,7.24,7.24,0,0,0-1.16,6.43L351.75,376a6.71,6.71,0,0,0,6.41,5h35.71a9.17,9.17,0,0,1,9,9.33v79A9.47,9.47,0,0,1,399.75,476.37Z"/><path class="cls-38" d="M387.78,326H342.16a8.42,8.42,0,0,1-8-6.23l-15.33-53.09a5.53,5.53,0,0,1,5.09-7.16h45.65a8.43,8.43,0,0,1,8,6.22l15.3,53.09A5.52,5.52,0,0,1,387.78,326Z"/><path class="cls-39" d="M381.58,326H342.16a8.42,8.42,0,0,1-8-6.23l-15.33-53.09a5.53,5.53,0,0,1,5.09-7.16h39.42a8.46,8.46,0,0,1,8,6.22l15.31,53.09A5.53,5.53,0,0,1,381.58,326Z"/><path class="cls-40" d="M361.82,358.84h97.29a0,0,0,0,1,0,0v15.27a3.37,3.37,0,0,1-3.37,3.37H365.2a3.37,3.37,0,0,1-3.37-3.37V358.84A0,0,0,0,1,361.82,358.84Z" transform="translate(820.93 736.33) rotate(180)"/><rect class="cls-39" x="357.45" y="370.65" width="106.02" height="10.89" rx="1.51" transform="translate(820.93 752.18) rotate(180)"/><path class="cls-12" d="M452.88,478.65H347.72v-2.28H452.88a6.89,6.89,0,0,0,6.7-7.05v-79a6.89,6.89,0,0,0-6.7-7.05H417.17a9,9,0,0,1-8.61-6.65L376,263.87a17.88,17.88,0,0,0-17.1-13.31H324.61v-2.28h34.33a20.15,20.15,0,0,1,19.3,15L410.76,376a6.71,6.71,0,0,0,6.41,5h35.71a9.17,9.17,0,0,1,9,9.33v79A9.17,9.17,0,0,1,452.88,478.65Z"/><polygon class="cls-41" points="238.66 275.83 208.21 275.83 192.99 241.32 223.44 241.32 238.66 275.83"/><polygon class="cls-42" points="235.23 275.83 204.79 275.83 189.57 241.32 220.01 241.32 235.23 275.83"/><path class="cls-43" d="M241.11,271.33H182.68a2.25,2.25,0,0,0,0,4.5h58.43a2.25,2.25,0,1,0,0-4.5Z"/><path class="cls-44" d="M151.4,253a8.66,8.66,0,0,1-8.76-10.21l13.22-93.48a12.16,12.16,0,0,1,11.64-10.2H287.71a8.67,8.67,0,0,1,8.76,10.2l-13.22,93.48A12.16,12.16,0,0,1,271.61,253Z"/><path class="cls-45" d="M145.84,253a8.66,8.66,0,0,1-8.76-10.21l13.21-93.48a12.17,12.17,0,0,1,11.65-10.2H282.15a8.67,8.67,0,0,1,8.76,10.2l-13.22,93.48A12.17,12.17,0,0,1,266.05,253Z"/><path class="cls-28" d="M146.9,245.52a5,5,0,0,1-5.07-5.91l12.3-87a7,7,0,0,1,6.75-5.91h120.2a5,5,0,0,1,5.08,5.91l-12.31,87a7,7,0,0,1-6.74,5.91Z"/><path class="cls-46" d="M216.15,205.54,236,194.72l-16.89-10.86-3,21A2.93,2.93,0,0,0,216.15,205.54Z"/><path class="cls-47" d="M236.75,195.2l-20.4,11.11a2.44,2.44,0,0,0,2.31,1.47h36.07a3.44,3.44,0,0,0,2.88-1.7L240.68,195.2l-2.12,1.16Z"/><path class="cls-48" d="M258,204.88,261,184.16l-19.4,10.56L258,205.27A1.83,1.83,0,0,0,258,204.88Z"/><path class="cls-49" d="M222.57,179.92a3.46,3.46,0,0,0-3.31,2.9v.09l19.44,12.49,22.4-12.19.05-.39a2.46,2.46,0,0,0-2.49-2.9Z"/><polygon class="cls-28" points="352.54 78.87 334.48 89.3 334.48 82.35 340.5 78.87 334.48 75.4 334.48 68.44 352.54 78.87"/><path class="cls-50" d="M208.25,170.54a3.37,3.37,0,0,0-.84-.71,3.74,3.74,0,0,0-1.48-.48,3,3,0,0,0-.42,0H178.78a5.05,5.05,0,0,0-4.81,4.15l-.33,2.08h-1.57a.92.92,0,0,0-.88.76l-.61,3.81a.64.64,0,0,0,.64.76h1.58l-.46,2.87h-1.57a.93.93,0,0,0-.88.76l-.61,3.81a.64.64,0,0,0,.64.76h1.58L171,192h-1.57a.93.93,0,0,0-.88.76l-.6,3.81a.63.63,0,0,0,.63.76h1.58l-.46,2.87h-1.57a.93.93,0,0,0-.88.76l-.6,3.81a.64.64,0,0,0,.64.77h1.57l-.39,2.49a3.45,3.45,0,0,0,3.49,4.15h26.73l.42,0a4.89,4.89,0,0,0,1.64-.48,5.17,5.17,0,0,0,2.75-3.65L209,173.48A3.6,3.6,0,0,0,208.25,170.54ZM192,171.68c2.51,0,4.19,2.23,3.76,5a5.82,5.82,0,0,1-5.34,5c-2.51,0-4.19-2.23-3.76-5A5.81,5.81,0,0,1,192,171.68Zm-5.41,9.7.05,0,.28.28,1.66,4.74.82-2.62-.48-1.06a5.2,5.2,0,0,0,1.27.15h.35a4.5,4.5,0,0,0,.63-.07l.24-.05-.81,1,0,2.57,2.89-4.47a4,4,0,0,0,.34-.23l.16-.12.16-.12c.5.37,2.46,2.24,1.79,7.88l0,.19H182.09l0-.18C182.14,189.06,182.87,184.17,186.54,181.38Zm3.37,23.49a1.43,1.43,0,0,1-1.61-1.68h0a3.85,3.85,0,0,1-3.07,1.68c-1.42,0-2.28-1.05-2-2.83A6,6,0,0,1,189.1,197a5.62,5.62,0,0,1,2.5.54l-1.29,4c-.42,1.28-.36,1.87.25,1.89.93,0,2.29-1.18,2.69-3.68.45-2.83-1-5-4.41-5a7.69,7.69,0,0,0-7.32,6.77c-.58,3.64,1.42,5.71,4.67,5.71a7.8,7.8,0,0,0,3.27-.7l.19,1.26a9.57,9.57,0,0,1-4.11.79c-3.62,0-6.39-2.59-5.71-6.86a9.77,9.77,0,0,1,9.46-8.3c3.84,0,6.16,2.63,5.58,6.29C194.37,202.86,192.27,204.87,189.91,204.87Zm-4.5-3.09c-.13.82.16,1.35.88,1.35s1.82-1,2.21-2.29l.64-2.07a2.28,2.28,0,0,0-.66-.09A3.52,3.52,0,0,0,185.41,201.78Z"/><path class="cls-51" d="M489.44,172.86,502,166l-10.7-6.87-1.87,13.3A1.48,1.48,0,0,0,489.44,172.86Z"/><path class="cls-52" d="M502.48,166.32l-12.92,7a1.56,1.56,0,0,0,1.46.93h22.84a2.18,2.18,0,0,0,1.82-1.07L505,166.32l-1.35.73Z"/><path class="cls-53" d="M516,172.44l1.84-13.11L505.52,166l10.38,6.68A1.83,1.83,0,0,0,516,172.44Z"/><path class="cls-54" d="M493.5,156.64a2.18,2.18,0,0,0-2.09,1.84v.05l12.31,7.91,14.18-7.72,0-.24a1.56,1.56,0,0,0-1.58-1.84Z"/><path class="cls-55" d="M485.15,206.62l12.57-6.84L487,192.9l-1.87,13.31A1.41,1.41,0,0,0,485.15,206.62Z"/><path class="cls-56" d="M498.19,200.08l-12.92,7a1.55,1.55,0,0,0,1.46.94h22.84a2.18,2.18,0,0,0,1.82-1.08l-10.71-6.89-1.35.73Z"/><path class="cls-57" d="M511.67,206.21l1.84-13.12-12.28,6.69,10.38,6.67A2.1,2.1,0,0,0,511.67,206.21Z"/><path class="cls-58" d="M511.55,193.58a2.18,2.18,0,0,0,2.09-1.83v-.06l-12.31-7.91-14.18,7.72,0,.25a1.55,1.55,0,0,0,1.58,1.83Z"/><polygon class="cls-59" points="512.74 206.96 509.26 210.31 504.39 205.35 507.86 202 512.74 206.96"/><polygon class="cls-60" points="509.98 211.04 507.09 208.1 522.81 192.9 525.7 195.84 509.98 211.04"/><path class="cls-61" d="M371.17,104.57a1.44,1.44,0,0,0-.74,2.67c.45.28,10.76,6.69,10.05,21.69a1.43,1.43,0,0,0,1.36,1.5,1.45,1.45,0,0,0,1.51-1.37c.79-16.78-11-24-11.45-24.28A1.4,1.4,0,0,0,371.17,104.57Z"/><path class="cls-62" d="M380.8,127.91a6.57,6.57,0,0,0-6.37,5,1.44,1.44,0,0,0,2.79.69,3.69,3.69,0,0,1,6.74-1,3.65,3.65,0,0,1,.42,2.79,1.45,1.45,0,0,0,1.05,1.75,1.44,1.44,0,0,0,1.74-1.05,6.58,6.58,0,0,0-4.79-8A6.62,6.62,0,0,0,380.8,127.91Z"/><path class="cls-63" d="M375.6,116.29l5.64-5.09s3.16,5.49,3,10.89l-5,2S377.49,118.78,375.6,116.29Z"/><path class="cls-64" d="M312.93,104.57a1.49,1.49,0,0,0-.73.2c-.5.3-12.27,7.46-11.53,24.25a1.44,1.44,0,0,0,2.87-.13c-.66-15.08,10-21.58,10.12-21.64a1.44,1.44,0,0,0,.51-2A1.45,1.45,0,0,0,312.93,104.57Z"/><path class="cls-65" d="M303.2,127.87a6.4,6.4,0,0,0-1.56.19,6.57,6.57,0,0,0-4.83,7.94,1.44,1.44,0,0,0,2.79-.68,3.7,3.7,0,0,1,5.51-4,3.75,3.75,0,0,1,1.67,2.28,1.44,1.44,0,1,0,2.79-.68,6.58,6.58,0,0,0-6.37-5Z"/><path class="cls-66" d="M308.27,116.7l-5.87-4.83s-2.91,5.62-2.53,11l5.11,1.76S306.49,119.27,308.27,116.7Z"/><path class="cls-67" d="M361.4,147c0-4-8.67-7.18-19.35-7.18S322.7,143,322.7,147c4.2,4,8.66,7.18,19.35,7.18S359.21,149.79,361.4,147Z"/><path class="cls-68" d="M325.75,112.39c.39,6.77-2.79,12.47-7.11,12.72s-8.13-5-8.52-11.82,2.79-12.46,7.11-12.71S325.36,105.62,325.75,112.39Z"/><path class="cls-69" d="M358.35,112.39c-.4,6.77,2.79,12.47,7.1,12.72s8.14-5,8.53-11.82-2.79-12.46-7.11-12.71S358.74,105.62,358.35,112.39Z"/><path class="cls-70" d="M342.05,167.19c-6.13,0-12.87-7.69-18.48-21.1-4.72-11.25-8-25.16-8-33.81,0-7.32,2.47-12.37,7.54-15.42,4.23-2.55,10.43-3.79,18.95-3.79s14.72,1.24,18.95,3.79c5.07,3,7.53,8.1,7.53,15.42,0,8.65-3.29,22.56-8,33.81C354.91,159.5,348.18,167.19,342.05,167.19Z"/><path class="cls-71" d="M369.68,112.28c0-16.61-12.37-20.36-27.63-20.36s-27.64,3.75-27.64,20.36c0,6.53,1.92,16.6,5.17,26.41a56.76,56.76,0,0,0,16.58,3.94,5.57,5.57,0,0,1,11.13,0,56.07,56.07,0,0,0,17.33-4.26C367.81,128.66,369.68,118.74,369.68,112.28Z"/><path class="cls-72" d="M366.4,100.27c-4.66-6.56-13.82-8.35-24.35-8.35-7.72,0-14.69,1-19.71,4.06,4.79,6.59,13.77,11,24.07,11A31.52,31.52,0,0,0,366.4,100.27Z"/><path class="cls-73" d="M319.05,78.28c-.08,4.38-1.36,7.91-2.86,7.89s-2.65-3.61-2.57-8,1.35-7.92,2.85-7.89S319.13,73.89,319.05,78.28Z"/><path class="cls-74" d="M365.82,79.1c-.07,4.39,1.08,8,2.58,8s2.78-3.51,2.86-7.89-1.08-8-2.58-8S365.9,74.72,365.82,79.1Z"/><path class="cls-75" d="M370.18,79.18c-.21,12.14-12.81,21.75-28.13,21.48S314.48,90.33,314.69,78.2s12.81-21.76,28.14-21.48S370.4,67,370.18,79.18Z"/><path class="cls-15" d="M328.32,90a7.22,7.22,0,0,1-7.09-7.34l.15-8.59a7.22,7.22,0,0,1,7.34-7.09l27.84.49a7.22,7.22,0,0,1,7.08,7.35l-.15,8.59a7.22,7.22,0,0,1-7.34,7.09Z"/><rect class="cls-76" x="331.95" y="58.59" width="20.96" height="40.21" rx="6.19" transform="translate(257.71 419.68) rotate(-88.99)"/><path class="cls-77" d="M319.8,69.49a27.55,27.55,0,0,1,15.3-10.82c10.44-2.88.89,2-2.41,3.3S325.24,64.22,319.8,69.49Z"/><path class="cls-78" d="M342.05,151.91A40.65,40.65,0,0,1,322.7,147c5,11.73,11.81,21.35,19.35,21.35s14.36-9.62,19.35-21.35A40.65,40.65,0,0,1,342.05,151.91Z"/><path class="cls-79" d="M346.07,148.67c0-3.2-2.06-5.79-4.6-5.79s-4.6,2.59-4.6,5.79,2.06,5.79,4.6,5.79S346.07,151.87,346.07,148.67Z"/><path class="cls-28" d="M344.18,146.2c0-2.88-1.21-5.21-2.71-5.21s-2.71,2.33-2.71,5.21,1.22,5.2,2.71,5.2S344.18,149.07,344.18,146.2Z"/><path class="cls-80" d="M348.68,111.6a6.63,6.63,0,1,0-6.63,6.63A6.63,6.63,0,0,0,348.68,111.6Z"/><circle class="cls-28" cx="342.05" cy="111.6" r="5.57" transform="translate(-16.47 81.3) rotate(-13.24)"/><path class="cls-81" d="M347,111.6a4.9,4.9,0,1,0-4.9,4.9A4.9,4.9,0,0,0,347,111.6Z"/><path class="cls-82" d="M340.87,112.66a4.89,4.89,0,0,0,4.8-3.94,4.62,4.62,0,0,0-8.23,2.52A4.87,4.87,0,0,0,340.87,112.66Z"/><g class="cls-83"><path class="cls-84" d="M355.7,78.23l-.06,0-23.36,8.5,2.47-8.5v0l-2.47-8.51,23.37,8.51Z"/><path d="M355.7,78.23l-.06,0H334.75v0h20.9Z"/></g><path class="cls-85" d="M362.28,72.64,351,89.32l3.55.07,8.06-11.89,0-2.75A6.14,6.14,0,0,0,362.28,72.64Zm-4.34-4L344,89.2l5.75.1,12-17.75A6.15,6.15,0,0,0,357.94,68.65ZM322.48,84.37a6.2,6.2,0,0,0,1.68,2.82L337.1,68.11l-3.55-.06ZM328.71,68a6.06,6.06,0,0,0-2.46.47l-3.84,5.65-.15,8.55c0,.08,0,.16,0,.24L332.33,68Z"/><path class="cls-86" d="M481.47,240.52,494,233.67l-10.69-6.87-1.87,13.3A2,2,0,0,0,481.47,240.52Z"/><path class="cls-87" d="M494.51,234l-12.91,7a1.54,1.54,0,0,0,1.46.93H505.9a2.18,2.18,0,0,0,1.82-1.07L497,234l-1.35.73Z"/><path class="cls-88" d="M508,240.1,509.84,227l-12.28,6.68,10.37,6.68A1,1,0,0,0,508,240.1Z"/><path class="cls-89" d="M507.87,227.48a2.19,2.19,0,0,0,2.1-1.84v0l-12.3-7.91-14.19,7.72,0,.24a1.56,1.56,0,0,0,1.58,1.84Z"/><polygon class="cls-16" points="504.56 232.6 507.36 234.22 507.36 230.98 504.56 232.6"/><path class="cls-16" d="M510.25,232.32h-4v.39h4c2.86,0,5.2,2,5.2,4.46s-2.34,4.46-5.2,4.46V242c3.11,0,5.65-2.17,5.65-4.85S513.36,232.32,510.25,232.32Z"/><path class="cls-16" d="M510.25,242.31H510v-1h.29c2.71,0,4.91-1.87,4.91-4.18S513,233,510.25,233H506v-1h4.29c3.27,0,5.94,2.31,5.94,5.14S513.52,242.31,510.25,242.31Z"/><path class="cls-16" d="M467.08,191.63a23.85,23.85,0,0,1-2.38,7.49,26.67,26.67,0,0,1-10.05,10.72,25.22,25.22,0,0,1-5.57,2.47,23.06,23.06,0,0,1-6.77,1c-12,0-20.34-9.73-18.66-21.72s12.78-21.71,24.77-21.71S468.77,179.64,467.08,191.63Z"/><path class="cls-67" d="M464.7,199.12a26.67,26.67,0,0,1-10.05,10.72,25.22,25.22,0,0,1-5.57,2.47L445,191.63l.52.2Z"/><path class="cls-39" d="M454.65,209.84a25.22,25.22,0,0,1-5.57,2.47,23.06,23.06,0,0,1-6.77,1c-12,0-20.34-9.73-18.66-21.72s12.78-21.71,24.77-21.71l-3.06,21.71.11.2Z"/></g></g></svg>